<svg width="225" height="24" viewBox="0 0 225 24" fill="none" xmlns="http://www.w3.org/2000/svg">
<path d="M5.328 0.823999V18.84H13.968L13.424 23H0.0800002V0.823999H5.328ZM32.6658 15.64C32.6658 17.1547 32.3351 18.5093 31.6737 19.704C31.0338 20.8987 30.0631 21.8373 28.7618 22.52C27.4604 23.2027 25.8711 23.544 23.9938 23.544C21.1778 23.544 19.0338 22.8293 17.5618 21.4C16.0898 19.9707 15.3538 18.0507 15.3538 15.64V0.823999H20.6018V15.416C20.6018 16.8453 20.8684 17.912 21.4018 18.616C21.9564 19.2987 22.8204 19.64 23.9938 19.64C25.1884 19.64 26.0524 19.2987 26.5858 18.616C27.1404 17.912 27.4178 16.8453 27.4178 15.416V0.823999H32.6658V15.64ZM41.7655 0.823999V23H36.5175V0.823999H41.7655ZM60.1965 0.823999V4.792L50.5645 18.808H60.3565L59.8445 23H44.3885V19.064L54.2125 4.888H45.3805V0.823999H60.1965ZM78.0285 0.279999C79.6925 0.279999 81.1325 0.514666 82.3485 0.983999C83.5858 1.45333 84.7058 2.168 85.7085 3.128L83.2765 5.976C81.7618 4.73867 80.1405 4.12 78.4125 4.12C77.4952 4.12 76.7698 4.312 76.2365 4.696C75.7032 5.05867 75.4365 5.592 75.4365 6.296C75.4365 6.78667 75.5538 7.192 75.7885 7.512C76.0232 7.81067 76.4392 8.09867 77.0365 8.376C77.6338 8.65333 78.5298 8.984 79.7245 9.368C81.9858 10.0933 83.6498 10.9893 84.7165 12.056C85.7832 13.1013 86.3165 14.5947 86.3165 16.536C86.3165 17.9227 85.9645 19.1493 85.2605 20.216C84.5565 21.2613 83.5432 22.0827 82.2205 22.68C80.8978 23.256 79.3298 23.544 77.5165 23.544C75.7032 23.544 74.0925 23.256 72.6845 22.68C71.2978 22.104 70.1032 21.336 69.1005 20.376L71.7565 17.464C72.6098 18.1893 73.4845 18.7333 74.3805 19.096C75.2978 19.4587 76.2898 19.64 77.3565 19.64C78.4445 19.64 79.2978 19.4053 79.9165 18.936C80.5565 18.4453 80.8765 17.7733 80.8765 16.92C80.8765 16.3653 80.7592 15.9067 80.5245 15.544C80.2898 15.16 79.8845 14.8187 79.3085 14.52C78.7325 14.2213 77.9005 13.9013 76.8125 13.56C74.3592 12.8133 72.6098 11.896 71.5645 10.808C70.5405 9.72 70.0285 8.344 70.0285 6.68C70.0285 5.4 70.3698 4.28 71.0525 3.32C71.7352 2.33867 72.6845 1.592 73.9005 1.08C75.1165 0.546665 76.4925 0.279999 78.0285 0.279999ZM94.453 0.823999V23H89.205V0.823999H94.453ZM103.828 0.823999V18.84H112.468L111.924 23H98.58V0.823999H103.828ZM128.657 0.823999L122.481 23H115.953L109.553 0.823999H115.089L119.313 18.904L123.281 0.823999H128.657ZM141.416 23L140.264 18.232H133.8L132.68 23H127.24L133.928 0.823999H140.296L146.984 23H141.416ZM134.696 14.424H139.368L137.032 4.632L134.696 14.424ZM161.453 0.823999V18.84H170.093L169.549 23H156.205V0.823999H161.453ZM177.859 0.823999V23H172.611V0.823999H177.859ZM204.002 23H198.85L198.466 14.328C198.36 12.2587 198.306 10.4133 198.306 8.792C198.306 7.55467 198.338 6.38133 198.402 5.272L194.978 20.664H190.018L186.37 5.272C186.498 7.128 186.562 8.87733 186.562 10.52C186.562 11.7573 186.53 13.048 186.466 14.392L186.082 23H180.962L182.626 0.823999H189.25L192.578 15.864L195.682 0.823999H202.338L204.002 23ZM218.823 23L217.671 18.232H211.207L210.087 23H204.646L211.335 0.823999H217.703L224.391 23H218.823ZM212.103 14.424H216.775L214.439 4.632L212.103 14.424Z" fill="#000"/>
</svg>
